HIERARCHY
ROOT Hips
{
	OFFSET 0.00000 0.00000 0.00000
	CHANNELS 6 Xposition Yposition Zposition Zrotation Yrotation Xrotation 
	JOINT LHipJoint
	{
		OFFSET 0 0 0
		CHANNELS 3 Zrotation Yrotation Xrotation
		JOINT LeftUpLeg
		{
			OFFSET 1.57358 -1.76629 0.73362
			CHANNELS 3 Zrotation Yrotation Xrotation
			JOINT LeftLeg
			{
				OFFSET 2.40600 -6.61045 0.00000
				CHANNELS 3 Zrotation Yrotation Xrotation
				JOINT LeftFoot
				{
					OFFSET 2.66168 -7.31291 0.00000
					CHANNELS 3 Zrotation Yrotation Xrotation
					JOINT LeftToeBase
					{
						OFFSET 0.20870 -0.57341 2.12506
						CHANNELS 3 Zrotation Yrotation Xrotation
						End Site
						{
							OFFSET 0.00000 -0.00000 1.10557
						}
					}
				}
			}
		}
	}
	JOINT RHipJoint
	{
		OFFSET 0 0 0
		CHANNELS 3 Zrotation Yrotation Xrotation
		JOINT RightUpLeg
		{
			OFFSET -1.49299 -1.76629 0.73362
			CHANNELS 3 Zrotation Yrotation Xrotation
			JOINT RightLeg
			{
				OFFSET -2.43663 -6.69460 0.00000
				CHANNELS 3 Zrotation Yrotation Xrotation
				JOINT RightFoot
				{
					OFFSET -2.62959 -7.22474 0.00000
					CHANNELS 3 Zrotation Yrotation Xrotation
					JOINT RightToeBase
					{
						OFFSET -0.25784 -0.70841 2.21862
						CHANNELS 3 Zrotation Yrotation Xrotation
						End Site
						{
							OFFSET -0.00000 -0.00000 1.16452
						}
					}
				}
			}
		}
	}
	JOINT LowerBack
	{
		OFFSET 0 0 0
		CHANNELS 3 Zrotation Yrotation Xrotation
		JOINT Spine
		{
			OFFSET -0.00034 2.12399 -0.25450
			CHANNELS 3 Zrotation Yrotation Xrotation
			JOINT Spine1
			{
				OFFSET 0.05594 2.14379 -0.03318
				CHANNELS 3 Zrotation Yrotation Xrotation
				JOINT Neck
				{
					OFFSET 0 0 0
					CHANNELS 3 Zrotation Yrotation Xrotation
					JOINT Neck1
					{
						OFFSET -0.09835 1.62725 0.24211
						CHANNELS 3 Zrotation Yrotation Xrotation
						JOINT Head
						{
							OFFSET 0.10849 1.66041 -0.22648
							CHANNELS 3 Zrotation Yrotation Xrotation
							End Site
							{
								OFFSET 0.04385 1.68267 -0.10541
							}
						}
					}
				}
				JOINT LeftShoulder
				{
					OFFSET 0 0 0
					CHANNELS 3 Zrotation Yrotation Xrotation
					JOINT LeftArm
					{
						OFFSET 3.29108 0.79398 -0.68179
						CHANNELS 3 Zrotation Yrotation Xrotation
						JOINT LeftForeArm
						{
							OFFSET 5.15310 -0.00000 -0.00000
							CHANNELS 3 Zrotation Yrotation Xrotation
							JOINT LeftHand
							{
								OFFSET 3.75138 -0.00000 -0.00000
								CHANNELS 3 Zrotation Yrotation Xrotation
								JOINT LeftFingerBase
								{
									OFFSET 0 0 0
									CHANNELS 3 Zrotation Yrotation Xrotation
									JOINT LeftHandIndex1
									{
										OFFSET 0.52917 -0.00000 0.00000
										CHANNELS 3 Zrotation Yrotation Xrotation
										End Site
										{
											OFFSET 0.42663 -0.00000 0.00000
										}
									}
								}
								JOINT LThumb
								{
									OFFSET 0 0 0
									CHANNELS 3 Zrotation Yrotation Xrotation
									End Site
									{
										OFFSET 0.43315 -0.00000 0.43315
									}
								}
							}
						}
					}
				}
				JOINT RightShoulder
				{
					OFFSET 0 0 0
					CHANNELS 3 Zrotation Yrotation Xrotation
					JOINT RightArm
					{
						OFFSET -3.07414 1.06285 -0.44338
						CHANNELS 3 Zrotation Yrotation Xrotation
						JOINT RightForeArm
						{
							OFFSET -5.29613 -0.00000 0.00000
							CHANNELS 3 Zrotation Yrotation Xrotation
							JOINT RightHand
							{
								OFFSET -3.76144 -0.00000 -0.00000
								CHANNELS 3 Zrotation Yrotation Xrotation
								JOINT RightFingerBase
								{
									OFFSET 0 0 0
									CHANNELS 3 Zrotation Yrotation Xrotation
									JOINT RightHandIndex1
									{
										OFFSET -0.74732 -0.00000 0.00000
										CHANNELS 3 Zrotation Yrotation Xrotation
										End Site
										{
											OFFSET -0.60251 -0.00000 0.00000
										}
									}
								}
								JOINT RThumb
								{
									OFFSET 0 0 0
									CHANNELS 3 Zrotation Yrotation Xrotation
									End Site
									{
										OFFSET -0.61171 -0.00000 0.61171
									}
								}
							}
						}
					}
				}
			}
		}
	}
}
MOTION
Frames: 11
Frame Time: .0083333
-7.987000 17.661800 -30.639800 -1.756600 -4.358000 -0.479300 0.000000 0.000000 0.000000 -15.152600 -7.832000 -24.992200 11.271700 18.065500 63.660700 -0.012700 -2.469600 -0.646200 0.019200 -0.895100 -2.460300 0.000000 0.000000 0.000000 28.639800 8.594800 -5.961700 -1.270000 -7.142700 20.138800 -0.222900 -1.125200 -9.401000 -0.267500 -3.327200 9.191100 -2.195500 -2.208300 7.496200 5.122900 -2.907900 -0.862500 6.957000 -1.320500 -4.733600 -13.038000 -0.137100 -8.150800 4.733600 0.923200 23.007800 3.884600 -0.224800 8.427400 0.000000 0.000000 0.000000 -92.460400 4.425300 20.505600 16.468100 -26.151300 -3.850000 -0.000000 -0.000000 11.101700 14.357200 29.016900 7.077500 -7.125000 0.000000 -0.000000 -18.649500 58.790200 -6.428100 0.000000 0.000000 0.000000 82.550900 -5.239400 20.767700 -16.077700 25.625900 -3.679500 0.000000 0.000000 5.902100 -17.144100 9.321200 -2.860400 7.125000 -0.000000 -0.000000 7.012700 -20.268000 4.180300
-7.995500 17.632000 -30.499600 -2.191900 -4.609700 -0.604700 0.000000 0.000000 0.000000 -14.571300 -7.933400 -25.783800 11.028900 17.949200 62.875500 -0.006100 -2.698100 -1.479800 0.024000 -1.000800 -2.751100 0.000000 0.000000 0.000000 29.233200 8.379600 -5.453200 -1.294400 -7.208500 20.334600 -0.269100 -0.400300 -9.952200 -0.284600 -3.431000 9.481100 -1.904200 -2.175500 7.864400 5.325500 -2.822800 -0.924400 7.024800 -1.273400 -5.022700 -13.186300 -0.001900 -8.103800 4.714400 1.134100 22.948100 3.919200 -0.137500 8.378800 0.000000 -0.000000 0.000000 -92.910300 4.968200 20.085700 16.465700 -26.148000 -3.848900 -0.000000 -0.000000 11.317600 14.375300 28.860900 7.052300 -7.125000 0.000000 -0.000000 -18.523000 58.646600 -6.318300 0.000000 -0.000000 0.000000 82.151100 -4.947100 21.415600 -16.115400 25.676900 -3.695800 0.000000 0.000000 6.072400 -17.157600 10.356200 -3.176700 7.125000 -0.000000 -0.000000 6.995300 -19.195500 4.338700
-8.002500 17.609800 -30.357900 -2.432500 -4.952800 -0.672200 0.000000 0.000000 0.000000 -14.236300 -7.925300 -26.550100 10.742800 17.806900 61.943500 0.011900 -3.032900 -2.723900 0.063700 -1.628500 -4.480200 0.000000 0.000000 0.000000 29.589700 8.225000 -4.820900 -1.310400 -7.251100 20.461400 -0.325600 0.772800 -10.534000 -0.332800 -3.707500 10.255100 -1.700000 -1.985300 7.981600 5.367700 -2.544900 -0.917100 6.928700 -1.137400 -5.125200 -13.201200 -0.104000 -7.760300 4.653800 0.955900 22.791100 3.877600 -0.225300 8.281500 0.000000 -0.000000 0.000000 -93.127500 5.363100 20.049700 16.448900 -26.125500 -3.841500 -0.000000 -0.000000 11.876500 13.968400 29.900100 7.068300 -7.125000 0.000000 -0.000000 -19.690600 59.534000 -7.157900 0.000000 -0.000000 0.000000 82.022500 -4.666700 21.581600 -16.204500 25.797200 -3.734500 0.000000 0.000000 6.319500 -17.132500 12.565100 -3.836600 7.125000 -0.000000 -0.000000 7.017600 -16.913000 4.708300
-8.009100 17.597200 -30.207500 -2.511200 -5.366300 -0.656500 0.000000 0.000000 0.000000 -14.112700 -7.934300 -27.232800 10.398300 17.627800 60.811600 0.038700 -3.009000 -3.811500 0.083000 -1.858400 -5.114600 0.000000 0.000000 0.000000 29.759400 8.295000 -4.188100 -1.323100 -7.284800 20.562000 -0.297400 -0.593900 -10.533200 -0.450400 -4.305700 11.938200 -1.816200 -1.981600 7.907700 5.537400 -2.541200 -1.027100 7.179700 -1.126200 -5.188100 -13.323300 0.028900 -7.208600 4.335400 1.144100 22.764700 3.798300 -0.180400 8.161400 0.000000 -0.000000 0.000000 -93.682800 6.146200 19.554500 16.431800 -26.102700 -3.834000 -0.000000 -0.000000 11.642000 14.105300 29.593500 7.073900 -7.125000 0.000000 -0.000000 -19.322100 59.277300 -6.898200 0.000000 -0.000000 0.000000 81.468700 -4.635600 22.652000 -16.368000 26.017100 -3.806000 0.000000 0.000000 6.039800 -17.179800 14.150300 -4.322200 7.125000 -0.000000 -0.000000 7.006600 -15.272200 4.951300
-8.012000 17.581200 -30.056600 -2.747100 -5.807600 -0.756300 0.000000 0.000000 0.000000 -13.871300 -7.874100 -27.697400 10.012000 17.416600 59.528300 0.060100 -2.733400 -4.474900 0.087600 -1.909400 -5.255400 0.000000 0.000000 0.000000 30.089100 8.307200 -3.479000 -1.339900 -7.329000 20.693800 -0.337300 -0.183200 -11.038600 -0.233900 -3.112900 8.593200 -1.540000 -2.029000 7.916100 5.618000 -2.575100 -0.994200 7.110200 -1.151700 -5.161800 -13.608000 0.194300 -7.233500 4.453600 1.394300 22.563700 3.901800 -0.066200 8.071900 0.000000 0.000000 0.000000 -94.089500 6.732600 18.964500 16.352700 -25.996600 -3.799300 -0.000000 -0.000000 11.328400 14.908600 28.119700 7.152200 -7.125000 0.000000 -0.000000 -17.472700 58.058500 -5.696700 0.000000 0.000000 0.000000 81.098800 -4.332500 23.591500 -16.469100 26.152600 -3.850400 0.000000 0.000000 5.692800 -16.469900 14.994400 -4.374000 7.125000 -0.000000 -0.000000 7.504500 -14.468300 5.439200
-8.012100 17.560100 -29.914000 -3.063800 -6.180500 -0.809300 0.000000 0.000000 0.000000 -13.534600 -7.868200 -28.217600 9.586300 17.170600 58.096500 0.078500 -2.373600 -5.000700 0.098000 -2.018600 -5.557200 0.000000 0.000000 0.000000 30.450000 8.091000 -2.913700 -1.351400 -7.359100 20.783800 -0.378400 0.387000 -11.489900 -0.310000 -3.579400 9.896100 -0.536600 -1.630100 7.904100 5.182600 -1.974100 -0.677600 5.981200 -0.896600 -4.947500 -12.997200 -0.097000 -7.875100 4.688400 0.942100 22.295100 3.843100 -0.191400 8.133700 -0.000000 0.000000 0.000000 -93.302400 6.332200 19.960100 16.103200 -25.660300 -3.690500 -0.000000 -0.000000 11.506200 14.949800 28.502600 7.261400 -7.125000 0.000000 -0.000000 -17.680500 58.433300 -5.927800 -0.000000 0.000000 0.000000 81.888700 -3.383300 22.608400 -16.543900 26.252600 -3.883400 0.000000 0.000000 5.474000 -15.170300 15.381000 -4.113400 7.125000 -0.000000 -0.000000 8.387500 -14.191300 6.142700
-8.016500 17.538600 -29.769300 -3.222600 -6.321500 -0.738100 0.000000 0.000000 0.000000 -13.345300 -8.095600 -28.752900 9.110600 16.878300 56.471700 0.090700 -1.889600 -5.347200 0.096000 -1.997900 -5.500000 0.000000 0.000000 0.000000 30.614000 7.652200 -2.558400 -1.350100 -7.355800 20.773700 -0.413800 0.849100 -11.884000 -0.390300 -4.011500 11.109200 -0.044400 -1.345400 7.828000 4.922700 -1.568300 -0.461300 5.364000 -0.717400 -4.739800 -12.613400 -0.376800 -8.509400 4.822500 0.554800 22.267400 3.796500 -0.323700 8.273000 -0.000000 0.000000 0.000000 -92.889600 5.889900 20.591200 15.870200 -25.344300 -3.590200 -0.000000 -0.000000 11.631100 14.707100 30.464000 7.580100 -7.125000 0.000000 -0.000000 -19.332800 60.235000 -7.347100 -0.000000 0.000000 0.000000 82.345300 -2.551600 22.279400 -16.779300 26.565900 -3.988100 0.000000 0.000000 5.253200 -15.171400 14.214800 -3.809400 7.125000 -0.000000 -0.000000 8.376600 -15.379500 5.919600
-8.025200 17.523500 -29.622000 -3.381100 -6.190600 -0.641200 0.000000 0.000000 0.000000 -13.174900 -8.535900 -29.184900 8.602600 16.545000 54.705200 0.265500 -2.530600 -9.186100 1.313900 -7.260400 -20.489000 0.000000 0.000000 0.000000 30.818500 7.279600 -2.147800 -1.335000 -7.316300 20.655800 -0.437100 0.804700 -12.234500 -0.427100 -4.194200 11.623600 -0.148300 -1.563000 7.899300 5.171300 -1.846900 -0.687200 5.732200 -0.843100 -4.980700 -12.900700 -0.189900 -8.172000 4.697700 0.840200 22.192600 3.821900 -0.224600 8.162600 0.000000 -0.000000 0.000000 -93.601500 6.628000 19.409700 15.901900 -25.387400 -3.603800 -0.000000 -0.000000 12.017500 12.886500 30.352500 6.594600 -7.125000 0.000000 -0.000000 -21.168400 59.706400 -7.812000 0.000000 -0.000000 0.000000 81.767800 -2.494500 23.709900 -17.094400 26.982000 -4.130100 0.000000 0.000000 4.804400 -15.884800 12.913600 -3.638900 7.125000 -0.000000 -0.000000 7.882600 -16.652300 5.344400
-8.027600 17.521100 -29.470000 -3.424800 -6.220400 -0.642000 0.000000 0.000000 0.000000 -13.172200 -8.938700 -29.365900 8.063800 16.166000 52.792100 0.208500 -1.124600 -8.302500 0.747200 -5.521500 -15.402100 0.000000 0.000000 0.000000 30.872400 6.951300 -1.448100 -1.297000 -7.215400 20.355100 -0.463600 0.827500 -12.600400 -0.421500 -4.166900 11.546700 -0.074900 -1.657800 7.866200 5.234800 -1.963100 -0.730100 5.771800 -0.901300 -4.996100 -13.230200 -0.174400 -7.971100 4.729300 0.878600 22.130000 3.887200 -0.230000 8.102500 -0.000000 0.000000 0.000000 -94.087800 7.113900 18.579700 15.927500 -25.422300 -3.614800 -0.000000 -0.000000 12.262300 12.637900 29.852800 6.368500 -7.125000 0.000000 -0.000000 -21.046800 59.186500 -7.500900 -0.000000 0.000000 0.000000 81.483500 -2.151800 24.544400 -17.293400 27.242900 -4.220800 0.000000 0.000000 4.619500 -15.977400 12.679600 -3.596100 7.125000 -0.000000 -0.000000 7.818100 -16.885200 5.259800
-8.030600 17.517900 -29.320700 -3.494700 -6.267900 -0.548700 0.000000 0.000000 0.000000 -13.073300 -9.392000 -29.645200 7.522100 15.756200 50.822300 0.167800 0.303400 -7.851700 0.334900 -3.719300 -10.288300 0.000000 0.000000 0.000000 30.953900 6.669200 -0.768000 -1.245300 -7.075600 19.939700 -0.494200 0.954800 -12.982800 -0.410000 -4.110200 11.386900 -0.003700 -1.713400 7.737900 5.320800 -2.030100 -0.745000 5.825000 -0.936700 -4.932100 -13.504000 -0.112300 -7.976600 4.738700 1.008700 22.178300 3.948200 -0.191800 8.108500 0.000000 -0.000000 0.000000 -94.513700 7.392300 17.922600 15.883200 -25.362000 -3.595800 -0.000000 -0.000000 12.458400 13.931600 29.230000 6.906700 -7.125000 0.000000 -0.000000 -19.243800 58.896000 -6.691900 0.000000 -0.000000 0.000000 81.136500 -1.812100 25.409700 -17.561600 27.592100 -4.344200 0.000000 0.000000 4.336400 -16.015900 12.481500 -3.549900 7.125000 -0.000000 -0.000000 7.791200 -17.085400 5.207000
-8.041600 17.512200 -29.177100 -3.720700 -6.305800 -0.544800 0.000000 0.000000 0.000000 -12.733400 -9.814300 -29.856500 6.982100 15.316800 48.806500 0.157500 1.192900 -8.032100 0.184100 -2.763300 -7.620500 0.000000 0.000000 0.000000 31.292300 6.517700 0.001300 -1.206300 -6.967900 19.620400 -0.516600 0.868700 -13.304200 -0.398000 -4.050400 11.218400 -0.796200 -2.335200 8.170600 6.208400 -2.866900 -1.257000 7.385700 -1.295800 -5.553200 -14.495200 0.783600 -6.888900 4.374900 2.297500 21.828900 4.067600 0.313600 7.676600 0.000000 -0.000000 0.000000 -96.593000 8.727600 15.109900 15.928600 -25.423700 -3.615300 -0.000000 -0.000000 12.896100 12.941800 30.310700 6.615400 -7.125000 0.000000 -0.000000 -21.078100 59.680300 -7.763700 0.000000 -0.000000 0.000000 79.388100 -2.158300 28.529000 -17.866200 27.985500 -4.486300 0.000000 0.000000 3.847000 -16.881600 11.515100 -3.466800 7.125000 -0.000000 -0.000000 7.187500 -18.016400 4.648800
